<svg width="57" height="57" viewBox="0 0 57 57" fill="none" xmlns="http://www.w3.org/2000/svg">
<g id="Group 39806">
<path id="Vector" d="M54.7075 54.6678L42.4866 42.4251M49.259 26.0634C49.259 32.2047 46.8194 38.0945 42.4768 42.4371C38.1342 46.7797 32.2444 49.2193 26.1031 49.2193C19.9617 49.2193 14.0719 46.7797 9.72936 42.4371C5.38678 38.0945 2.94714 32.2047 2.94714 26.0634C2.94714 19.9221 5.38678 14.0323 9.72936 9.68969C14.0719 5.34711 19.9617 2.90747 26.1031 2.90747C32.2444 2.90747 38.1342 5.34711 42.4768 9.68969C46.8194 14.0323 49.259 19.9221 49.259 26.0634Z" stroke="#3734A9" stroke-width="4.08634" stroke-linecap="round"/>
<path id="Vector_2" d="M34.7299 20.9039L33.6235 17.7594C33.463 17.3016 33.1543 16.9034 32.7412 16.6213C32.3282 16.3392 31.8318 16.1876 31.3226 16.188H23.9483C23.4391 16.1876 22.9428 16.3392 22.5297 16.6213C22.1166 16.9034 21.8079 17.3016 21.6474 17.7594L20.5411 20.9039C20.2469 21.0205 19.9956 21.2169 19.8189 21.4684C19.6422 21.72 19.5479 22.0154 19.5479 22.3175V26.1484C19.5479 26.7139 19.8746 27.2027 20.3567 27.4686V29.2132C20.3567 29.4164 20.4419 29.6113 20.5935 29.755C20.7452 29.8987 20.9509 29.9794 21.1654 29.9794H21.9742C22.1887 29.9794 22.3944 29.8987 22.5461 29.755C22.6977 29.6113 22.7829 29.4164 22.7829 29.2132V27.6808H32.488V29.2132C32.488 29.4164 32.5732 29.6113 32.7249 29.755C32.8765 29.8987 33.0822 29.9794 33.2967 29.9794H34.1055C34.32 29.9794 34.5257 29.8987 34.6774 29.755C34.829 29.6113 34.9143 29.4164 34.9143 29.2132V27.4686C35.1596 27.3353 35.3636 27.1431 35.5056 26.9113C35.6475 26.6795 35.7225 26.4164 35.723 26.1484V22.3175C35.723 22.0154 35.6287 21.72 35.452 21.4684C35.2753 21.2169 35.0241 21.0205 34.7299 20.9039ZM23.9483 17.7204H31.3218C31.6703 17.7204 31.9793 17.9303 32.0893 18.2444L32.9838 20.7851H22.2872L23.1808 18.2444C23.2345 18.0918 23.3375 17.9591 23.4753 17.865C23.613 17.7709 23.7785 17.7203 23.9483 17.7204ZM22.3786 25.3823C22.2192 25.3822 22.0614 25.3524 21.9142 25.2946C21.767 25.2368 21.6332 25.152 21.5206 25.0453C21.4079 24.9385 21.3186 24.8117 21.2576 24.6722C21.1967 24.5327 21.1654 24.3832 21.1654 24.2322C21.1655 24.0812 21.1969 23.9317 21.258 23.7923C21.319 23.6528 21.4084 23.5261 21.5211 23.4194C21.6339 23.3127 21.7677 23.228 21.9149 23.1703C22.0622 23.1126 22.22 23.0829 22.3794 23.0829C22.7012 23.083 23.0098 23.2042 23.2373 23.4199C23.4649 23.6356 23.5926 23.9281 23.5925 24.233C23.5924 24.5379 23.4644 24.8303 23.2368 25.0458C23.0091 25.2613 22.7004 25.3824 22.3786 25.3823ZM32.8924 25.3823C32.733 25.3822 32.5752 25.3524 32.428 25.2946C32.2808 25.2368 32.147 25.152 32.0344 25.0453C31.9217 24.9385 31.8324 24.8117 31.7715 24.6722C31.7105 24.5327 31.6792 24.3832 31.6792 24.2322C31.6793 24.0812 31.7107 23.9317 31.7718 23.7923C31.8328 23.6528 31.9222 23.5261 32.035 23.4194C32.1477 23.3127 32.2815 23.228 32.4287 23.1703C32.576 23.1126 32.7338 23.0829 32.8932 23.0829C33.215 23.083 33.5236 23.2042 33.7512 23.4199C33.9787 23.6356 34.1064 23.9281 34.1063 24.233C34.1062 24.5379 33.9782 24.8303 33.7506 25.0458C33.5229 25.2613 33.2142 25.3824 32.8924 25.3823Z" fill="#FFC881"/>
<path id="Vector_3" d="M11.0347 18.2313C10.696 18.2313 10.3712 18.3658 10.1317 18.6053C9.89223 18.8448 9.75769 19.1696 9.75769 19.5082C9.75769 19.8469 9.89223 20.1717 10.1317 20.4112C10.3712 20.6507 10.696 20.7852 11.0347 20.7852H13.8696L17.2204 34.1935C17.5051 35.33 18.5229 36.109 19.6939 36.109H35.6178C36.7709 36.109 37.7503 35.3428 38.053 34.2318L41.3629 22.0622H38.6889L35.6165 33.555H19.6926L16.3431 20.1467C16.2047 19.5966 15.8858 19.1089 15.4373 18.7616C14.9888 18.4143 14.4368 18.2276 13.8696 18.2313H11.0347ZM34.0203 36.109C31.9197 36.109 30.1894 37.8393 30.1894 39.9399C30.1894 42.0405 31.9197 43.7708 34.0203 43.7708C36.1209 43.7708 37.8512 42.0405 37.8512 39.9399C37.8512 37.8393 36.1209 36.109 34.0203 36.109ZM22.5275 36.109C20.4268 36.109 18.6965 37.8393 18.6965 39.9399C18.6965 42.0405 20.4268 43.7708 22.5275 43.7708C24.6281 43.7708 26.3584 42.0405 26.3584 39.9399C26.3584 37.8393 24.6281 36.109 22.5275 36.109ZM22.5275 38.6629C23.2477 38.6629 23.8045 39.2197 23.8045 39.9399C23.8045 40.6601 23.2477 41.2169 22.5275 41.2169C21.8073 41.2169 21.2505 40.6601 21.2505 39.9399C21.2505 39.2197 21.8073 38.6629 22.5275 38.6629ZM34.0203 38.6629C34.7405 38.6629 35.2973 39.2197 35.2973 39.9399C35.2973 40.6601 34.7405 41.2169 34.0203 41.2169C33.3001 41.2169 32.7433 40.6601 32.7433 39.9399C32.7433 39.2197 33.3001 38.6629 34.0203 38.6629Z" fill="#31A54D"/>
</g>
</svg>
