<svg width="15" height="7" viewBox="0 0 15 7" fill="none" xmlns="http://www.w3.org/2000/svg">
<path d="M0.907154 7V0.2446H3.68652C4.28485 0.2446 4.79633 0.341106 5.22096 0.534117C5.65202 0.727129 5.98335 1.00378 6.21497 1.36407C6.44658 1.72435 6.56239 2.1522 6.56239 2.64759C6.56239 3.14299 6.44658 3.57083 6.21497 3.93112C5.98335 4.28497 5.65202 4.55841 5.22096 4.75142C4.79633 4.93799 4.28485 5.03128 3.68652 5.03128H1.60199L2.16173 4.4619V7H0.907154ZM5.32712 7L3.61896 4.54875H4.96039L6.6782 7H5.32712ZM2.16173 4.59701L1.60199 3.99867H3.62861C4.18191 3.99867 4.59689 3.87965 4.87354 3.6416C5.15662 3.40355 5.29816 3.07222 5.29816 2.64759C5.29816 2.21653 5.15662 1.8852 4.87354 1.65358C4.59689 1.42197 4.18191 1.30616 3.62861 1.30616H1.60199L2.16173 0.688526V4.59701ZM8.40029 7V0.2446H11.5657C12.3763 0.2446 12.994 0.405443 13.4186 0.727129C13.8432 1.04238 14.0555 1.46701 14.0555 2.001C14.0555 2.36129 13.9719 2.67011 13.8046 2.92746C13.6373 3.17837 13.4122 3.3746 13.1291 3.51614C12.8524 3.65125 12.55 3.71881 12.2219 3.71881L12.3956 3.37139C12.7752 3.37139 13.1162 3.44216 13.4186 3.5837C13.721 3.71881 13.959 3.91825 14.1327 4.18203C14.3129 4.44582 14.4029 4.77393 14.4029 5.16639C14.4029 5.74543 14.181 6.19579 13.7371 6.51747C13.2931 6.83916 12.6337 7 11.7587 7H8.40029ZM9.65487 6.01564H11.6815C12.1511 6.01564 12.5114 5.93844 12.7624 5.78403C13.0133 5.62962 13.1387 5.38192 13.1387 5.04093C13.1387 4.70638 13.0133 4.4619 12.7624 4.30749C12.5114 4.14665 12.1511 4.06623 11.6815 4.06623H9.55836V3.09152H11.4306C11.8681 3.09152 12.2026 3.01431 12.4342 2.8599C12.6723 2.7055 12.7913 2.47388 12.7913 2.16506C12.7913 1.84981 12.6723 1.61498 12.4342 1.46057C12.2026 1.30616 11.8681 1.22896 11.4306 1.22896H9.65487V6.01564Z" fill="#483EA8"/>
</svg>
